<?xml version="1.0" standalone="no"?><!DOCTYPE svg PUBLIC "-//W3C//DTD SVG 1.1//EN" "http://www.w3.org/Graphics/SVG/1.1/DTD/svg11.dtd"><svg t="1585995860877" class="icon" viewBox="0 0 1024 1024" version="1.1" xmlns="http://www.w3.org/2000/svg" p-id="5272" xmlns:xlink="http://www.w3.org/1999/xlink" width="200" height="200"><defs><style type="text/css"></style></defs><path d="M232 450m8 0l64 0q8 0 8 8l0 341q0 8-8 8l-64 0q-8 0-8-8l0-341q0-8 8-8Z" p-id="5273"></path><path d="M472 93m8 0l64 0q8 0 8 8l0 698q0 8-8 8l-64 0q-8 0-8-8l0-698q0-8 8-8Z" p-id="5274"></path><path d="M712 288m8 0l64 0q8 0 8 8l0 503q0 8-8 8l-64 0q-8 0-8-8l0-503q0-8 8-8Z" p-id="5275"></path><path d="M144 858m8 0l720 0q8 0 8 8l0 56q0 8-8 8l-720 0q-8 0-8-8l0-56q0-8 8-8Z" p-id="5276"></path></svg>